<svg xmlns="http://www.w3.org/2000/svg" width="20" height="20" viewBox="0 0 20 20" fill="none">
  <path fill-rule="evenodd" clip-rule="evenodd" d="M3.48969 9.48234C3.35843 9.79918 3.33341 9.96109 3.33341 10V16.6682C3.33341 17.1274 3.70551 17.5 4.16675 17.5H6.66675V12.5C6.66675 11.5795 7.41294 10.8333 8.33341 10.8333H11.6667C12.5872 10.8333 13.3334 11.5795 13.3334 12.5V17.5H15.8334C16.2947 17.5 16.6667 17.1274 16.6667 16.6682V10C16.6667 9.96109 16.6417 9.79918 16.5105 9.48234C16.3886 9.18801 16.2037 8.82718 15.9623 8.41876C15.4804 7.60318 14.8042 6.65 14.0474 5.74183C13.2888 4.83158 12.47 3.99142 11.7086 3.38713C11.328 3.08504 10.9781 2.85508 10.6713 2.70368C10.3576 2.54886 10.1368 2.50001 10.0001 2.50001C9.86333 2.50001 9.64258 2.54886 9.32883 2.70368C9.02208 2.85508 8.67216 3.08504 8.29156 3.38713C7.53016 3.99142 6.71131 4.83158 5.95276 5.74183C5.19596 6.65 4.51976 7.60318 4.03783 8.41876C3.79648 8.82718 3.61162 9.18801 3.48969 9.48234ZM8.59125 1.2091C9.0295 0.992827 9.51183 0.833344 10.0001 0.833344C10.4883 0.833344 10.9707 0.992827 11.4089 1.2091C11.8541 1.42879 12.305 1.73269 12.7447 2.08164C13.6239 2.77944 14.5238 3.71011 15.3277 4.67486C16.1335 5.64169 16.8635 6.66768 17.3972 7.57086C17.6637 8.02179 17.889 8.45518 18.0502 8.84451C18.2022 9.21126 18.3334 9.62226 18.3334 10V16.6682C18.3334 18.0499 17.2132 19.1667 15.8334 19.1667H13.3334C12.4129 19.1667 11.6667 18.4205 11.6667 17.5V12.5H8.33341V17.5C8.33341 18.4205 7.58722 19.1667 6.66675 19.1667H4.16675C2.78703 19.1667 1.66675 18.0499 1.66675 16.6682V10C1.66675 9.62226 1.79798 9.21126 1.94993 8.84451C2.1112 8.45518 2.33649 8.02179 2.60296 7.57086C3.13666 6.66768 3.86671 5.64169 4.6724 4.67486C5.47635 3.71011 6.37626 2.77944 7.25547 2.08164C7.69516 1.73269 8.14609 1.42879 8.59125 1.2091Z" fill="#1C274C"/>
</svg>
