<svg xmlns="http://www.w3.org/2000/svg" width="22" height="22" viewBox="0 0 22 22" fill="none">
  <path d="M14.5777 2.38197L16.5777 3.43152C18.7294 4.56066 19.8052 5.12523 20.4026 6.13974C21 7.15425 21 8.41667 21 10.9415V11.0585C21 13.5833 21 14.8458 20.4026 15.8603C19.8052 16.8748 18.7294 17.4393 16.5777 18.5685L14.5777 19.618C12.8221 20.5393 11.9443 21 11 21C10.0557 21 9.1779 20.5393 7.42229 19.618L5.42229 18.5685C3.27063 17.4393 2.19479 16.8748 1.5974 15.8603C1 14.8458 1 13.5833 1 11.0585V10.9415C1 8.41667 1 7.15425 1.5974 6.13974C2.19479 5.12523 3.27063 4.56066 5.42229 3.43152L7.42229 2.38197C9.1779 1.46066 10.0557 1 11 1C11.9443 1 12.8221 1.46066 14.5777 2.38197Z" stroke="#1C274C" stroke-width="1.5" stroke-linecap="round"/>
  <path d="M20 6.5L16 8.5M16 8.5C16 8.5 15.6953 8.65237 15.5 8.75C13.7426 9.6287 11 11 11 11M16 8.5V12M16 8.5L6.5 3.5M11 11L2 6.5M11 11V20.5" stroke="#1C274C" stroke-width="1.5" stroke-linecap="round"/>
</svg>
